<svg width="329" height="472" viewBox="0 0 329 472" fill="none" xmlns="http://www.w3.org/2000/svg">
<path fill-rule="evenodd" clip-rule="evenodd" d="M90 142.733C98.25 142.733 104.932 149.415 104.932 157.665C104.932 165.915 98.2498 172.597 90 172.597H37.7347C33.6044 172.597 30.2659 175.941 30.2659 180.113V433.886C30.2659 438.048 33.6148 441.402 37.7815 441.402H291.555C295.716 441.402 299.07 438.053 299.07 433.886V180.113C299.07 175.972 295.695 172.597 291.602 172.597H239.336C231.086 172.597 224.404 165.915 224.404 157.665C224.404 149.415 231.087 142.733 239.336 142.733H291.602C312.195 142.733 328.935 159.483 328.935 180.113V433.887C328.935 454.553 312.206 471.267 291.555 471.267H37.7816C17.1149 471.267 0.401611 454.537 0.401611 433.887V180.113C0.401611 159.452 17.1043 142.733 37.7349 142.733H90ZM151.844 357.84L64.7707 269.657C50.7134 255.575 71.7967 234.455 85.844 248.537L144.532 307.401C147.412 310.287 149.766 309.333 149.766 305.245V15.7916C149.766 7.51563 156.438 0.859619 164.668 0.859619C172.954 0.859619 179.574 7.54709 179.574 15.7916V305.245C179.574 309.354 181.913 310.297 184.804 307.401L243.492 248.537C257.549 234.455 278.622 255.574 264.565 269.657L178.065 357.736C170.799 365.137 159.076 365.168 151.846 357.84L151.844 357.84Z" fill="black"/>
</svg>
