<svg width="31" height="37" viewBox="0 0 31 37" fill="none" xmlns="http://www.w3.org/2000/svg">
<path d="M30.2182 26.9215C28.3721 24.7867 27.5064 22.0753 27.5064 19.8829L27.3909 14.5174C27.3909 9.61317 24.1025 5.11343 19.4291 3.61318C19.3135 1.76708 17.8712 0.439941 15.9675 0.439941C14.1214 0.439941 12.6791 1.76699 12.506 3.61318C7.83299 5.17102 4.54422 9.61335 4.54422 14.5174L4.42904 19.8829C4.42904 22.1329 3.56375 24.7871 1.71727 26.9215C1.37137 27.3253 0.967529 27.9023 0.967529 28.71C0.967529 30.5561 1.77523 31.5945 3.85203 31.5945H12.506V32.7485C12.506 34.6525 14.0638 36.21 15.9675 36.21C17.8716 36.21 19.429 34.6521 19.429 32.7485V31.5945H28.083C30.1598 31.5945 30.9675 30.5561 30.9675 28.71C30.9683 27.9023 30.5644 27.3253 30.2182 26.9215ZM17.122 32.7485C17.122 33.4407 16.4875 33.9025 15.9681 33.9025C15.4487 33.9025 14.8142 33.441 14.8142 32.7485V31.5946H17.1221L17.122 32.7485ZM28.0837 29.287H3.85159C3.10148 29.287 3.15943 28.6525 3.50533 28.4217C6.10156 25.941 6.73615 22.0178 6.73615 19.9409L6.85169 14.5753C6.85169 10.4788 9.9094 6.6135 13.9482 5.63268C14.4676 5.51714 14.8135 5.0557 14.8135 4.5367V3.95972C14.8135 3.26756 15.2749 2.80578 15.9674 2.80578C16.6596 2.80578 17.1214 3.26723 17.1214 3.95972V4.5367C17.1214 5.0561 17.4676 5.51752 17.9866 5.63268C22.0252 6.6135 25.0832 10.4789 25.0832 14.5753L25.1987 19.9409C25.1987 22.0177 25.8909 25.941 28.4295 28.4217C28.7754 28.6525 28.833 29.287 28.0833 29.287H28.0837Z" fill="black"/>
</svg>
