<svg width="60" height="62" viewBox="0 0 60 62" fill="none" xmlns="http://www.w3.org/2000/svg">
<path fill-rule="evenodd" clip-rule="evenodd" d="M51.0247 27.5002L36.2484 47.4919C39.4876 52.5573 40.7527 56.5868 39.2053 58.134C36.455 60.8835 25.8678 54.7542 15.5562 44.4428C5.24481 34.1322 -0.88453 23.5436 1.86501 20.7957C3.41226 19.2485 7.44195 20.5128 12.5079 23.7519L32.4988 8.97638C30.6868 5.34351 30.286 2.33165 31.7366 0.881038C34.4861 -1.8685 42.8448 2.03225 50.4066 9.59336C57.9677 17.1552 61.8685 25.5139 59.119 28.2634C57.6684 29.714 54.6563 29.314 51.0244 27.5012L51.0247 27.5002ZM0.622408 56.8886L13.0672 44.4438L16.8012 48.1779L4.35646 60.6226L0 61.245L0.622408 56.8886Z" fill="black"/>
</svg>
