<svg width="613" height="211" viewBox="0 0 613 211" fill="none" xmlns="http://www.w3.org/2000/svg">
<path d="M603.373 151.973L600.847 150.203C581.754 136.848 559.014 129.687 535.711 129.687H375.871L361.893 118.489L214.426 0.322021H148.921L224.227 118.494L231.368 129.692H120.936L44.5146 52.4106H0.56665L34.1653 138.812H34.4101C34.733 139.999 35.3841 141.14 36.4049 142.114L88.1862 192.327C93.6654 197.557 100.952 200.478 108.53 200.478L234.905 203.411L532.612 210.333C557.918 210.333 582.622 202.551 603.357 188.046V188.041C615.888 179.285 615.888 160.734 603.362 151.973L603.373 151.973Z" fill="black"/>
</svg>
