<svg width="30" height="30" viewBox="0 0 30 30" fill="none" xmlns="http://www.w3.org/2000/svg">
<path d="M15 0C6.72732 0 0 6.72959 0 15C0 23.2704 6.72732 30 15 30C23.2704 30 30 23.2704 30 15C30 6.72959 23.2704 0 15 0ZM22.2937 15.9375H15.9375V22.2954C15.9375 22.8128 15.5175 23.2328 15.0001 23.2328C14.4807 23.2328 14.0626 22.8128 14.0626 22.2954V15.9375H7.70417C7.18678 15.9375 6.76676 15.5175 6.76676 15.0001C6.76676 14.4827 7.18677 14.0626 7.70417 14.0626H14.0626V7.70417C14.0626 7.18678 14.4809 6.76676 15.0001 6.76676C15.5174 6.76676 15.9375 7.18677 15.9375 7.70417V14.0626H22.2937C22.8111 14.0626 23.2311 14.4827 23.2311 15.0001C23.2313 15.5174 22.8113 15.9375 22.2937 15.9375Z" fill="#BF1D19"/>
</svg>
