<svg width="20" height="21" viewBox="0 0 20 21" fill="none" xmlns="http://www.w3.org/2000/svg">
<path d="M10.1051 0C4.53379 0 9.49814e-09 3.9239 9.49814e-09 8.74595C-0.000164863 12.1592 2.14613 15.2273 5.50294 16.6456V19.4821C5.50212 19.6763 5.56114 19.8659 5.67195 20.0253C5.78275 20.1848 5.93988 20.3063 6.12224 20.3733C6.22744 20.4075 6.33775 20.4235 6.44838 20.4206C6.73116 20.4186 6.99826 20.2903 7.17634 20.0707L9.30365 17.4705C9.54009 17.4823 9.8024 17.4894 10.027 17.4894C15.5253 17.4894 20 13.5655 20 8.74347C20 3.92138 15.5561 5.98991e-05 10.1055 5.98991e-05L10.1051 0ZM10.0153 16.5464C9.73396 16.5464 9.37239 16.5322 9.11698 16.5132C8.96215 16.5009 8.81096 16.5653 8.71285 16.6859L6.44836 19.4727V16.3266C6.44819 16.1274 6.32354 15.9498 6.1364 15.8821C2.98317 14.6647 0.936108 11.8637 0.936108 8.74095C0.936108 4.51234 5.13171 0.940512 10.0957 0.940512C15.0242 0.940512 19.0329 4.43885 19.0329 8.74095C19.0329 13.0431 14.9932 16.546 10.0151 16.546L10.0153 16.5464Z" fill="#D90026"/>
<path d="M13.4925 5.38696H6.40118C6.14017 5.38696 5.92847 5.59851 5.92847 5.85967C5.92847 6.12069 6.14018 6.33239 6.40118 6.33239H13.4925C13.7537 6.33239 13.9652 6.12068 13.9652 5.85967C13.9652 5.5985 13.7537 5.38696 13.4925 5.38696Z" fill="#D90026"/>
<path d="M13.4925 8.22351H6.40118C6.14017 8.22351 5.92847 8.43506 5.92847 8.69622C5.92847 8.95723 6.14018 9.16893 6.40118 9.16893H13.4925C13.7537 9.16893 13.9652 8.95722 13.9652 8.69622C13.9652 8.43505 13.7537 8.22351 13.4925 8.22351Z" fill="#D90026"/>
<path d="M13.4925 11.0601H6.40118C6.14017 11.0601 5.92847 11.2718 5.92847 11.5328C5.92847 11.7939 6.14018 12.0055 6.40118 12.0055H13.4925C13.7537 12.0055 13.9652 11.7939 13.9652 11.5328C13.9652 11.2718 13.7537 11.0601 13.4925 11.0601Z" fill="#D90026"/>
</svg>
