<svg width="50" height="50" viewBox="0 0 50 50" fill="none" xmlns="http://www.w3.org/2000/svg">
<path d="M19.9407 32.8398C21.0807 33.5197 21.7007 34.3997 21.9907 34.8697L18.2707 37.5997L16.4307 36.5397L16.9407 31.9497C17.5007 31.9697 18.7007 32.0797 19.9406 32.8397L19.9407 32.8398Z" fill="white"/>
<path d="M25 0C38.8102 0 50 11.1898 50 25C50 38.8102 38.8102 50 25 50C11.1898 50 -7.01532e-07 38.8102 -7.01532e-07 25C-7.01532e-07 11.1898 11.1898 0 25 0ZM34.0499 14.74C34.8499 13.36 34.3699 11.59 32.9899 10.8L32.2599 10.38C30.8799 9.59 29.1199 10.06 28.3299 11.44L27.6699 12.57L33.3999 15.87L34.0499 14.74ZM15.9298 39.9494L22.3897 35.2094L22.4197 35.1694L32.8992 16.7897L27.1492 13.4797L16.4494 31.7899L15.5694 39.7398C15.5394 39.9398 15.7694 40.0698 15.9294 39.9498L15.9298 39.9494Z" fill="white"/>
<path d="M20.6498 31.2095L28.6997 17.2695L28.9497 17.4195L20.8998 31.3595L20.6498 31.2095Z" fill="white"/>
</svg>
