<svg width="25" height="25" viewBox="0 0 25 25" fill="none" xmlns="http://www.w3.org/2000/svg">
<path d="M21.0693 0L10.0975 10.9719L8.13928 16.8607L14.0281 14.9025L25 3.93066L21.0693 0Z" fill="#62366C"/>
<path d="M15.0141 15.8747C14.8618 16.0263 14.6762 16.1405 14.4723 16.2082L8.56954 18.1803C8.24333 18.2864 7.88919 18.2678 7.57557 18.1283C7.26214 17.9885 7.01149 17.7379 6.87177 17.4245C6.73226 17.1108 6.71366 16.7567 6.81968 16.4305L8.77787 10.5416C8.84576 10.3377 8.9597 10.1522 9.1113 9.99988L16.3332 2.77795H1.38878C1.02049 2.77795 0.667307 2.9242 0.406894 3.18462C0.146248 3.44503 0 3.79842 0 4.16674V23.6111C0 23.9794 0.146248 24.3326 0.406894 24.593C0.667307 24.8537 1.02052 24.9999 1.38878 24.9999H20.8332C21.2015 24.9999 21.5549 24.8537 21.8153 24.593C22.0757 24.3326 22.2219 23.9794 22.2219 23.6111V8.66668L15.0141 15.8747Z" fill="#885994"/>
</svg>
