<svg width="50" height="50" viewBox="0 0 50 50" fill="none" xmlns="http://www.w3.org/2000/svg">
<path d="M25 0C11.2152 0 0 11.2152 0 25C0 38.7848 11.2152 50 25 50C38.7848 50 50 38.7848 50 25C50 11.2152 38.7848 0 25 0ZM5 26.6667H3.33333C2.41331 26.6667 1.66667 25.92 1.66667 25C1.66667 24.08 2.41331 23.3333 3.33333 23.3333H5C5.92002 23.3333 6.66667 24.08 6.66667 25C6.66667 25.92 5.92002 26.6667 5 26.6667ZM23.3333 3.33333C23.3333 2.41331 24.08 1.66667 25 1.66667C25.92 1.66667 26.6667 2.41331 26.6667 3.33333V5C26.6667 5.92002 25.92 6.66667 25 6.66667C24.08 6.66667 23.3333 5.92002 23.3333 5V3.33333ZM12.0371 40.32L10.859 41.4982C10.5338 41.8233 10.1075 41.9867 9.68076 41.9867C9.25406 41.9867 8.82734 41.8233 8.50257 41.4982C7.85078 40.8464 7.85078 39.7932 8.50257 39.1414L9.68076 37.9632C10.3326 37.3114 11.3857 37.3114 12.0375 37.9632C12.6893 38.615 12.6893 39.6682 12.0375 40.32H12.0371ZM12.0371 12.0352C11.712 12.3604 11.2857 12.5237 10.859 12.5237C10.4322 12.5237 10.0055 12.3604 9.68076 12.0352L8.50257 10.857C7.85078 10.2053 7.85078 9.1521 8.50257 8.50029C9.15436 7.84848 10.2075 7.8485 10.8593 8.50029L12.0375 9.67848C12.6893 10.3303 12.6893 11.3834 12.0375 12.0352H12.0371ZM26.6667 46.6648C26.6667 47.5848 25.92 48.3314 25 48.3314C24.08 48.3314 23.3333 47.5848 23.3333 46.6648V44.9981C23.3333 44.0781 24.08 43.3314 25 43.3314C25.92 43.3314 26.6667 44.0781 26.6667 44.9981V46.6648ZM32.8449 32.8429C32.5197 33.168 32.0934 33.3313 31.6667 33.3313C31.24 33.3313 30.8132 33.168 30.4885 32.8429L23.8218 26.1762C23.5086 25.8629 23.3333 25.4396 23.3333 24.998V14.998C23.3333 14.078 24.08 13.3313 25 13.3313C25.92 13.3313 26.6667 14.078 26.6667 14.998V24.3079L32.8449 30.4861C33.4967 31.1379 33.4966 32.191 32.8449 32.8429ZM41.4981 41.4961C41.1729 41.8212 40.7466 41.9846 40.3199 41.9846C39.8932 41.9846 39.4665 41.8212 39.1417 41.4961L37.9635 40.3179C37.3117 39.6661 37.3117 38.613 37.9635 37.9611C38.6153 37.3093 39.6685 37.3094 40.3203 37.9611L41.4985 39.1393C42.1503 39.7911 42.1503 40.8443 41.4985 41.4961H41.4981ZM41.4981 10.8542L40.3199 12.0324C39.9948 12.3575 39.5684 12.5208 39.1417 12.5208C38.715 12.5208 38.2883 12.3575 37.9635 12.0324C37.3117 11.3806 37.3117 10.3274 37.9635 9.67562L39.1417 8.49743C39.7935 7.84564 40.8467 7.84564 41.4985 8.49743C42.1503 9.14922 42.1503 10.2024 41.4985 10.8542H41.4981ZM46.6663 26.6628H44.9996C44.0796 26.6628 43.333 25.9161 43.333 24.9961C43.333 24.0761 44.0796 23.3294 44.9996 23.3294H46.6663C47.5863 23.3294 48.333 24.0761 48.333 24.9961C48.333 25.9161 47.5863 26.6628 46.6663 26.6628Z" fill="#7F76B2"/>
</svg>
