<svg width="25" height="25" viewBox="0 0 25 25" fill="none" xmlns="http://www.w3.org/2000/svg">
<path fill-rule="evenodd" clip-rule="evenodd" d="M25 12.5C25 5.59615 19.4038 0 12.5 0C5.59615 0 0 5.59615 0 12.5C0 19.4038 5.59615 25 12.5 25C19.4038 25 25 19.4038 25 12.5ZM7.19635 7.19657C7.68457 6.70856 8.47603 6.70856 8.96423 7.19657L12.4998 10.7323L16.0353 7.19657C16.5236 6.70856 17.315 6.70856 17.803 7.19657C18.2914 7.68479 18.2914 8.47625 17.803 8.96445L14.2675 12.5L17.803 16.0355C18.2914 16.5238 18.2914 17.3152 17.803 17.8032C17.315 18.2916 16.5235 18.2916 16.0353 17.8032L12.4998 14.2677L8.96423 17.8032C8.47601 18.2916 7.68456 18.2916 7.19635 17.8032C6.70834 17.3152 6.70834 16.5238 7.19635 16.0355L10.7321 12.5L7.19635 8.96445C6.70834 8.47623 6.70834 7.68477 7.19635 7.19657Z" fill="#E25855"/>
</svg>
