<svg width="15" height="15" viewBox="0 0 15 15" fill="none" xmlns="http://www.w3.org/2000/svg">
<path d="M14.862 14.064C14.862 14.064 14.862 14.0639 14.862 14.0639L11.5952 10.7974C10.8018 10.0041 10.7902 8.74329 11.1683 7.68688C11.3957 7.0516 11.5107 6.37628 11.5027 5.69118C11.4703 2.58097 8.94107 0.0437976 5.83215 0.000552766C2.6241 -0.0435216 0 2.55377 0 5.75212C0 8.93207 2.595 11.5167 5.77476 11.5041V11.5041C8.08833 11.4966 10.8132 11.3499 12.4491 12.9859L14.1945 14.7312C14.1945 14.7312 14.1945 14.7313 14.1945 14.7313V14.7313C14.1945 14.7314 14.1945 14.7314 14.1946 14.7314C14.3789 14.9155 14.6774 14.9155 14.8616 14.7314C14.9502 14.6429 15 14.5228 15 14.3977C15.0002 14.2725 14.9504 14.1525 14.862 14.064C14.862 14.064 14.862 14.064 14.862 14.064V14.064ZM5.85928 10.5594C3.12298 10.6197 0.883374 8.38085 0.943917 5.644C1.00028 3.08324 3.08249 1.00108 5.64306 0.944863C8.37935 0.884509 10.619 3.12338 10.5584 5.86023C10.5018 8.42099 8.42012 10.5028 5.85928 10.5594Z" fill="#363636"/>
</svg>
